<svg xmlns="http://www.w3.org/2000/svg" xmlns:xlink="http://www.w3.org/1999/xlink" version="1.1" x="0px" y="0px" viewBox="0 0 100 125" enable-background="new 0 0 100 100" xml:space="preserve"><g><path fill="none" d="M50,51.121c4.878,0,9.465-1.9,12.914-5.349c3.449-3.449,5.349-8.036,5.349-12.914   c0-4.878-1.9-9.465-5.349-12.914c-3.56-3.56-8.238-5.34-12.914-5.34c-4.677,0-9.353,1.779-12.914,5.34   c-3.449,3.449-5.349,8.036-5.349,12.914c0,4.879,1.9,9.465,5.349,12.914C40.535,49.221,45.122,51.121,50,51.121z"/><path fill="none" d="M85.448,66.434c-0.365-0.618-0.747-1.222-1.143-1.818c-1.378-2.073-2.888-3.976-4.488-5.654   c-1.43-1.499-3.062-2.952-4.853-4.321c-1.613-1.233-3.277-2.332-4.963-3.278c-0.162,0.174-0.33,0.35-0.504,0.523   c-0.666,0.666-1.37,1.302-2.093,1.892C62.516,57.767,56.334,59.963,50,59.963c-7.365,0-14.29-2.869-19.498-8.077   c-0.175-0.175-0.344-0.351-0.506-0.526C17.461,58.336,9.528,71.135,8.874,85.395h82.252c-0.25-5.471-1.58-10.757-3.96-15.741   C86.647,68.566,86.068,67.482,85.448,66.434z"/><path d="M50,54.951c5.902,0,11.45-2.298,15.622-6.471c4.173-4.172,6.471-9.72,6.471-15.622c0-5.901-2.298-11.449-6.471-15.622   c-8.613-8.613-22.63-8.614-31.244,0c-4.173,4.173-6.471,9.721-6.471,15.622c0,5.902,2.298,11.45,6.471,15.622   C38.551,52.652,44.099,54.951,50,54.951z M37.086,19.943c3.561-3.561,8.237-5.34,12.914-5.34c4.677,0,9.354,1.78,12.914,5.34   c3.449,3.449,5.349,8.036,5.349,12.914c0,4.879-1.9,9.465-5.349,12.914c-3.45,3.449-8.036,5.349-12.914,5.349   s-9.465-1.9-12.914-5.349c-3.449-3.449-5.349-8.036-5.349-12.914C31.737,27.979,33.636,23.392,37.086,19.943z"/><path d="M90.622,68.003c-0.568-1.189-1.201-2.374-1.878-3.518c-0.399-0.675-0.816-1.337-1.25-1.989   c-1.501-2.258-3.151-4.337-4.906-6.176c-1.567-1.644-3.35-3.232-5.299-4.721c-2.21-1.69-4.515-3.152-6.85-4.346   c-0.792-0.406-1.757-0.211-2.331,0.465c-0.388,0.457-0.841,0.985-1.318,1.461c-0.576,0.575-1.182,1.124-1.806,1.632   c-4.208,3.432-9.53,5.323-14.985,5.323c-6.343,0-12.306-2.47-16.79-6.955c-0.431-0.431-0.838-0.896-1.318-1.461   c-0.575-0.677-1.54-0.871-2.332-0.465C14.411,54.999,5,70.348,5,87.31c0,1.057,0.857,1.915,1.915,1.915h86.17   c1.057,0,1.915-0.857,1.915-1.915C95,80.582,93.527,74.086,90.622,68.003z M8.874,85.395c0.654-14.26,8.587-27.059,21.122-34.034   c0.162,0.175,0.331,0.351,0.506,0.526c5.208,5.208,12.133,8.077,19.498,8.077c6.335,0,12.516-2.196,17.406-6.184   c0.722-0.589,1.427-1.226,2.093-1.892c0.174-0.174,0.342-0.35,0.504-0.523c1.686,0.946,3.35,2.045,4.963,3.278   c1.791,1.369,3.423,2.822,4.853,4.321c1.6,1.678,3.11,3.581,4.488,5.654c0.396,0.596,0.777,1.2,1.143,1.818   c0.62,1.048,1.199,2.132,1.719,3.22c2.38,4.984,3.709,10.27,3.96,15.741H8.874z"/></g></svg>
