<svg xmlns="http://www.w3.org/2000/svg" xmlns:xlink="http://www.w3.org/1999/xlink" version="1.1" x="0px" y="0px" viewBox="0 0 100 125" enable-background="new 0 0 100 100" xml:space="preserve"><g><path d="M80.405,16.91c-1.381,0-2.5,1.119-2.5,2.5s1.119,2.5,2.5,2.5c1.431,0,2.595,1.165,2.595,2.596v9.396H17v-9.396   c0-1.431,1.164-2.596,2.596-2.596c1.381,0,2.5-1.119,2.5-2.5s-1.119-2.5-2.5-2.5c-4.188,0-7.596,3.407-7.596,7.596v56.91   c0,4.188,3.407,7.596,7.596,7.596h60.81c4.188,0,7.595-3.407,7.595-7.596v-56.91C88,20.317,84.593,16.91,80.405,16.91z    M80.405,84.012h-60.81c-1.432,0-2.596-1.164-2.596-2.596V38.902h66v42.514C83,82.848,81.836,84.012,80.405,84.012z"/><path d="M27.925,26.237c1.656,0,3-1.343,3-3v-9.249c0-1.657-1.344-3-3-3c-1.657,0-3,1.343-3,3v9.249   C24.925,24.894,26.268,26.237,27.925,26.237z"/><path d="M50,26.237c1.657,0,3-1.343,3-3v-9.249c0-1.657-1.343-3-3-3s-3,1.343-3,3v9.249C47,24.894,48.343,26.237,50,26.237z"/><path d="M72.076,26.237c1.657,0,3-1.343,3-3v-9.249c0-1.657-1.343-3-3-3s-3,1.343-3,3v9.249   C69.076,24.894,70.419,26.237,72.076,26.237z"/><path d="M36.196,21.85h5.55c1.381,0,2.5-1.119,2.5-2.5s-1.119-2.5-2.5-2.5h-5.55c-1.381,0-2.5,1.119-2.5,2.5   S34.815,21.85,36.196,21.85z"/><path d="M57.963,21.85h5.549c1.381,0,2.5-1.119,2.5-2.5s-1.119-2.5-2.5-2.5h-5.549c-1.381,0-2.5,1.119-2.5,2.5   S56.582,21.85,57.963,21.85z"/><circle cx="28.694" cy="47.764" r="5.365"/><circle cx="43.002" cy="47.764" r="5.365"/><circle cx="57.311" cy="47.764" r="5.365"/><circle cx="71.617" cy="47.764" r="5.365"/><circle cx="28.694" cy="61.42" r="5.366"/><circle cx="43.002" cy="61.42" r="5.366"/><circle cx="57.311" cy="61.42" r="5.366"/><circle cx="71.617" cy="61.42" r="5.366"/><circle cx="28.694" cy="75.078" r="5.365"/><circle cx="43.002" cy="75.078" r="5.365"/><circle cx="57.311" cy="75.078" r="5.365"/><circle cx="71.617" cy="75.078" r="5.365"/></g><text x="0" y="115" fill="#000000" font-size="5px" font-weight="bold" font-family="'Helvetica Neue', Helvetica, Arial-Unicode, Arial, Sans-serif">Created by Yang</text><text x="0" y="120" fill="#000000" font-size="5px" font-weight="bold" font-family="'Helvetica Neue', Helvetica, Arial-Unicode, Arial, Sans-serif">from the Noun Project</text></svg>