<svg xmlns="http://www.w3.org/2000/svg" data-name="Layer 1" viewBox="0 0 100 125" x="0px" y="0px"><title>Artboard 89</title><path d="M37,22a4,4,0,0,0-8,0v4.7A12,12,0,0,0,21,38V70A12,12,0,0,0,33,82H67A12,12,0,0,0,79,70V38a12,12,0,0,0-8-11.3V22a4,4,0,0,0-8,0v4H54V22a4,4,0,0,0-8,0v4H37ZM67,34a4,4,0,0,1,4,4V70a4,4,0,0,1-4,4H33a4,4,0,0,1-4-4V38a4,4,0,0,1,4-4Z"/><path d="M42.5,62.16a6.37,6.37,0,0,0,9,0L61.83,51.83a4,4,0,0,0-5.66-5.66L47,55.34l-3.17-3.17a4,4,0,0,0-5.66,5.66Z"/><text x="0" y="115" fill="#000000" font-size="5px" font-weight="bold" font-family="'Helvetica Neue', Helvetica, Arial-Unicode, Arial, Sans-serif">Created by Gregor Cresnar</text><text x="0" y="120" fill="#000000" font-size="5px" font-weight="bold" font-family="'Helvetica Neue', Helvetica, Arial-Unicode, Arial, Sans-serif">from the Noun Project</text></svg>