<svg xmlns="http://www.w3.org/2000/svg" xmlns:xlink="http://www.w3.org/1999/xlink" version="1.1" x="0px" y="0px" viewBox="0 0 100 125" enable-background="new 0 0 100 100" xml:space="preserve"><g><path fill="none" d="M63.887,46.372c7.657-7.657,7.657-20.116,0-27.773c-3.828-3.828-8.858-5.743-13.887-5.743   s-10.058,1.914-13.887,5.743c-7.657,7.657-7.657,20.116,0,27.773C43.77,54.028,56.23,54.028,63.887,46.372z"/><path fill="none" d="M87.061,66.295c-0.382-0.646-0.781-1.279-1.195-1.902c-1.443-2.17-3.022-4.158-4.693-5.91   c-1.494-1.568-3.201-3.087-5.072-4.517c-1.907-1.457-3.88-2.734-5.873-3.803c-0.335,0.382-0.655,0.731-0.997,1.074   c-0.656,0.655-1.35,1.283-2.065,1.867C62.343,57.037,56.246,59.202,50,59.202c-7.264,0-14.094-2.829-19.23-7.966   c-0.355-0.355-0.686-0.718-0.998-1.075C15.966,57.526,7.316,71.564,6.968,87.143h86.065c-0.136-6.084-1.539-11.96-4.175-17.483   C88.314,68.522,87.709,67.39,87.061,66.295z"/><path d="M50,54.07c5.53,0,11.06-2.105,15.27-6.315c8.42-8.42,8.42-22.12,0-30.54c-8.419-8.42-22.121-8.42-30.54,0   c-8.42,8.42-8.42,22.12,0,30.54C38.94,51.966,44.47,54.07,50,54.07z M36.113,18.599c3.828-3.828,8.858-5.743,13.887-5.743   s10.058,1.914,13.887,5.743c7.657,7.657,7.657,20.116,0,27.773c-7.657,7.656-20.116,7.656-27.773,0   C28.456,38.715,28.456,26.256,36.113,18.599z"/><path d="M90.623,68.818c-0.568-1.191-1.2-2.376-1.879-3.52c-0.399-0.674-0.816-1.336-1.249-1.988   c-1.506-2.264-3.156-4.342-4.906-6.177c-1.564-1.64-3.348-3.229-5.3-4.721c-2.217-1.694-4.522-3.155-6.851-4.347   c-0.404-0.203-0.897-0.108-1.191,0.239c-0.504,0.594-0.935,1.085-1.4,1.55c-0.609,0.609-1.254,1.192-1.918,1.733   c-4.475,3.649-10.132,5.659-15.93,5.659c-6.741,0-13.079-2.625-17.847-7.391c-0.505-0.506-0.972-1.045-1.4-1.551   c-0.294-0.347-0.787-0.444-1.192-0.239C14.411,55.811,5,71.159,5,88.121C5,88.662,5.438,89.1,5.978,89.1h88.043   c0.54,0,0.978-0.438,0.978-0.978C95,81.396,93.527,74.901,90.623,68.818z M6.968,87.143c0.348-15.579,8.998-29.617,22.803-36.981   c0.312,0.356,0.644,0.719,0.998,1.075c5.137,5.137,11.966,7.966,19.23,7.966c6.247,0,12.343-2.166,17.166-6.099   c0.715-0.584,1.409-1.211,2.065-1.867c0.342-0.343,0.662-0.692,0.997-1.074c1.993,1.069,3.966,2.346,5.873,3.803   c1.872,1.43,3.578,2.949,5.072,4.517c1.671,1.752,3.25,3.74,4.693,5.91c0.414,0.623,0.813,1.256,1.195,1.902   c0.649,1.095,1.253,2.227,1.796,3.366c2.637,5.523,4.04,11.399,4.175,17.483H6.968z"/></g></svg>
